<?xml version="1.0" encoding="utf-8"?>
<!-- Generator: Adobe Illustrator 16.0.0, SVG Export Plug-In . SVG Version: 6.00 Build 0)  -->
<!DOCTYPE svg PUBLIC "-//W3C//DTD SVG 1.1//EN" "http://www.w3.org/Graphics/SVG/1.1/DTD/svg11.dtd">
<svg version="1.1" id="Layer_1" xmlns="http://www.w3.org/2000/svg" xmlns:xlink="http://www.w3.org/1999/xlink" x="0px" y="0px"
	 width="288.48px" height="222.917px" viewBox="0 0 288.48 222.917" enable-background="new 0 0 288.48 222.917"
	 xml:space="preserve">
<path opacity="0.4" fill="none" stroke="#FFFFFF" stroke-width="4" stroke-miterlimit="10" d="M182.574,97.778
	c1.167,4.35,1.789,8.922,1.789,13.64c0,28.996-23.505,52.5-52.5,52.5s-52.5-23.504-52.5-52.5c0-28.995,23.505-52.5,52.5-52.5
	c4.093,0,8.077,0.469,11.901,1.355"/>
<path opacity="0.4" fill="none" stroke="#FFFFFF" stroke-width="10" stroke-miterlimit="10" d="M89.911,24.364
	c37.026-18.557,83.28-12.39,114.171,18.501c38.598,38.597,38.599,101.175,0,139.772c-29.965,29.965-74.385,36.665-110.815,20.103"/>
<circle opacity="0.4" fill="none" stroke="#FFFFFF" stroke-width="3" stroke-miterlimit="10" cx="131.863" cy="112.083" r="82.167"/>
<path opacity="0.4" fill="none" stroke="#FFFFFF" stroke-width="4" stroke-miterlimit="10" d="M131.738,175.167
	c-2.885,0-5.726-0.191-8.51-0.563"/>
<path opacity="0.4" fill="none" stroke="#FFFFFF" stroke-width="4" stroke-miterlimit="10" d="M165.952,165.24
	c-8.303,5.277-17.908,8.69-28.225,9.65"/>
<path opacity="0.4" fill="none" stroke="#FFFFFF" stroke-width="4" stroke-miterlimit="10" d="M175.452,157.865
	c-1.895,1.778-3.896,3.442-5.996,4.981"/>
<path opacity="0.4" fill="none" stroke="#FFFFFF" stroke-width="4" stroke-miterlimit="10" d="M193.176,128.83
	c-2.671,9.377-7.433,17.875-13.749,24.957"/>
<path opacity="0.4" fill="none" stroke="#FFFFFF" stroke-width="4" stroke-miterlimit="10" d="M195.265,104.581
	c0.229,2.206,0.349,4.445,0.349,6.712c0,4.591-0.484,9.069-1.405,13.384"/>
</svg>
